{"title":"Doctor.Who.S13E01.Terror.of.the.Zygons.DVDrip.x264.AC3.iNTERNAL-","uid":11333201,"size":4134130624,"categoryP":"video","categoryS":"tv_shows","magnet":"?xt=urn:btih:f7061a1c540e3dc95fcad31a09d43e743c84765b&amp;dn=Doctor.Who.S13E01.Terror.of.the.Zygons.DVDrip.x264.AC3.iNTERNAL-&amp;tr=udp%3A%2F%2Ftracker.openbittorrent.com%3A80&amp;tr=udp%3A%2F%2Fopen.demonii.com%3A1337&amp;tr=udp%3A%2F%2Ftracker.coppersurfer.tk%3A6969&amp;tr=udp%3A%2F%2Fexodus.desync.com%3A6969","seeders":1,"leechers":1,"uploader":"WhoRipsWho","files":15,"time":1414709458,"description":"Doctor.Who.S13E01.Terror.of.the.Zygons.DVDrip.x264.AC3.iNTERNAL-VRiSFAGS | 50fps | 540p | All tracks and bonus features\n\nPlease help seed!\nI know everyone says this, but this isn't some big name scene release.\nThe more torrents we put up the harder it will be for us to keep these active.\nAll help is appreciated.\n\nFormat                         : Matroska\nFormat version                 : Version 4 / Version 2\nFile size                      : 532 MiB\nDuration                       : 23mn 23s\nOverall bit rate               : 3 182 Kbps\nMovie name                     : Terror of the Zygons: Episode 1 - Director's Cut\nEncoded date                   : UTC 2014-04-01 04:01:08\nWriting application            : mkvmerge v6.5.0 ('Isn't she lovely') built on Oct 20 2013 12:50:05\nWriting library                : Lavf55.34.101\nAUTHOR                         : VRiSFAGS\n\nVideo\nID                             : 1\nFormat                         : AVC\nFormat/Info                    : Advanced Video Codec\nFormat profile                 : &lt;a class=&quot;__cf_email__&quot; href=&quot;/cdn-cgi/l/email-protection&quot; data-cfemail=&quot;4b03222c230b0778657a&quot;&gt;[email&amp;#160;protected]&lt;/a&gt;&lt;script cf-hash='f9e31' type=&quot;text/javascript&quot;&gt;\n/* &lt;![CDATA[ */!function(){try{var t=&quot;currentScript&quot;in document?document.currentScript:function(){for(var t=document.getElementsByTagName(&quot;script&quot;),e=t.length;e--;)if(t[e].getAttribute(&quot;cf-hash&quot;))return t[e]}();if(t&amp;&amp;t.previousSibling){var e,r,n,i,c=t.previousSibling,a=c.getAttribute(&quot;data-cfemail&quot;);if(a){for(e=&quot;&quot;,r=parseInt(a.substr(0,2),16),n=2;a.length-n;n+=2)i=parseInt(a.substr(n,2),16)^r,e+=String.fromCharCode(i);e=document.createTextNode(e),c.parentNode.replaceChild(e,c)}}}catch(u){}}();/* ]]&gt; */&lt;/script&gt;\nFormat settings, CABAC         : Yes\nFormat settings, ReFrames      : 5 frames\nCodec ID                       : V_MPEG4/ISO/AVC\nDuration                       : 23mn 23s\nBit rate                       : 2 095 Kbps\nWidth                          : 694 pixels\nHeight                         : 536 pixels\nDisplay aspect ratio           : 1.295\nFrame rate mode                : Constant\nFrame rate                     : 50.000 fps\nStandard                       : PAL\nColor space                    : YUV\nChroma subsampling             : 4:2:0\nBit depth                      : 8 bits\nScan type                      : Progressive\nBits/(Pixel*Frame)             : 0.113\nStream size                    : 350 MiB (66%)\nWriting library                : x264 core 142 r2409 d6b4e63\nEncoding settings              : cabac=1 / ref=5 / deblock=1:-2:-2 / analyse=0x3:0x113 / me=umh / subme=8 / psy=1 / psy_rd=1.10:0.00 / mixed_ref=1 / me_range=16 / chroma_me=1 / trellis=1 / 8x8dct=1 / cqm=0 / deadzone=21,11 / \n\nfast_pskip=1 / chroma_qp_offset=-2 / threads=6 / lookahead_threads=1 / sliced_threads=0 / nr=0 / decimate=1 / interlaced=0 / bluray_compat=0 / constrained_intra=0 / bframes=3 / b_pyramid=2 / b_adapt=2 / b_bias=0 / direct=3 / weightb=1 / \n\nopen_gop=0 / weightp=2 / keyint=300 / keyint_min=30 / scenecut=40 / intra_refresh=0 / rc_lookahead=50 / rc=crf / mbtree=1 / crf=19.0 / qcomp=0.60 / qpmin=0 / qpmax=69 / qpstep=4 / ip_ratio=1.40 / aq=1:0.80\nDefault                        : Yes\nForced                         : No\nColor primaries                : BT.601 PAL\nTransfer characteristics       : BT.470 System B, BT.470 System G\nMatrix coefficients            : BT.601\n\nAudio #1\nID                             : 2\nFormat                         : AC-3\nFormat/Info                    : Audio Coding 3\nMode extension                 : CM (complete main)\nFormat settings, Endianness    : Big\nCodec ID                       : A_AC3\nDuration                       : 23mn 23s\nBit rate mode                  : Constant\nBit rate                       : 192 Kbps\nChannel(s)                     : 2 channels\nChannel positions              : Front: L R\nSampling rate                  : 48.0 KHz\nBit depth                      : 16 bits\nCompression mode               : Lossy\nDelay relative to video        : 40ms\nStream size                    : 32.1 MiB (6%)\nTitle                          : Main Audio, Original\nLanguage                       : English\nDefault                        : Yes\nForced                         : No\n\nAudio #2\nID                             : 3\nFormat                         : AC-3\nFormat/Info                    : Audio Coding 3\nMode extension                 : CM (complete main)\nFormat settings, Endianness    : Big\nCodec ID                       : A_AC3\nDuration                       : 23mn 23s\nBit rate mode                  : Constant\nBit rate                       : 448 Kbps\nChannel(s)                     : 6 channels\nChannel positions              : Front: L C R, Side: L R, LFE\nSampling rate                  : 48.0 KHz\nBit depth                      : 16 bits\nCompression mode               : Lossy\nDelay relative to video        : 40ms\nStream size                    : 74.9 MiB (14%)\nTitle                          : Main Audio, Surround Remix\nLanguage                       : English\nDefault                        : No\nForced                         : No\n\nAudio #3\nID                             : 4\nFormat                         : AC-3\nFormat/Info                    : Audio Coding 3\nMode extension                 : CM (complete main)\nFormat settings, Endianness    : Big\nCodec ID                       : A_AC3\nDuration                       : 23mn 23s\nBit rate mode                  : Constant\nBit rate                       : 192 Kbps\nChannel(s)                     : 2 channels\nChannel positions              : Front: L R\nSampling rate                  : 48.0 KHz\nBit depth                      : 16 bits\nCompression mode               : Lossy\nDelay relative to video        : 40ms\nStream size                    : 32.1 MiB (6%)\nTitle                          : Commentary\nLanguage                       : English\nDefault                        : No\nForced                         : No\n\nAudio #4\nID                             : 5\nFormat                         : AC-3\nFormat/Info                    : Audio Coding 3\nMode extension                 : CM (complete main)\nFormat settings, Endianness    : Big\nCodec ID                       : A_AC3\nDuration                       : 23mn 23s\nBit rate mode                  : Constant\nBit rate                       : 192 Kbps\nChannel(s)                     : 2 channels\nChannel positions              : Front: L R\nSampling rate                  : 48.0 KHz\nBit depth                      : 16 bits\nCompression mode               : Lossy\nDelay relative to video        : 40ms\nStream size                    : 32.1 MiB (6%)\nTitle                          : Music Only\nLanguage                       : English\nDefault                        : No\nForced                         : No\n\nText #1\nID                             : 6\nFormat                         : UTF-8\nCodec ID                       : S_TEXT/UTF8\nCodec ID/Info                  : UTF-8 Plain Text\nTitle                          : Episode\nLanguage                       : English\nDefault                        : Yes\nForced                         : No\n\nText #2\nID                             : 7\nFormat                         : UTF-8\nCodec ID                       : S_TEXT/UTF8\nCodec ID/Info                  : UTF-8 Plain Text\nTitle                          : Information\nLanguage                       : English\nDefault                        : No\nForced                         : No","torrent":{"xt":"urn:btih:f7061a1c540e3dc95fcad31a09d43e743c84765b","amp;dn":"Doctor.Who.S13E01.Terror.of.the.Zygons.DVDrip.x264.AC3.iNTERNAL-","amp;tr":["udp%3A%2F%2Ftracker.openbittorrent.com%3A80","udp%3A%2F%2Fopen.demonii.com%3A1337","udp%3A%2F%2Ftracker.coppersurfer.tk%3A6969","udp%3A%2F%2Fexodus.desync.com%3A6969"],"infoHash":"f7061a1c540e3dc95fcad31a09d43e743c84765b","infoHashBuffer":{"type":"Buffer","data":[247,6,26,28,84,14,61,201,95,202,211,26,9,212,62,116,60,132,118,91]},"announce":[],"urlList":[]}}